<svg width="705" height="705" viewBox="0 0 705 705" fill="none" xmlns="http://www.w3.org/2000/svg">
<path d="M583.26 210.918L583.928 211.259C587.783 217.875 591.766 229.291 594.462 236.8C610.118 280.419 613.67 323.57 608.118 369.443C605.98 386.012 602.107 402.304 596.558 418.06C579.945 467.482 549.132 510.912 507.968 542.919C458.343 581.794 395.354 599.457 332.753 592.055C267.794 583.615 208.782 549.907 168.513 498.24C170.866 495.7 179.885 485.338 182.637 485.366C184.783 487.348 186.823 490.24 188.757 492.522C223.685 533.717 280.96 566.472 335.147 570.899C327.107 565.219 316.847 556.065 309.375 549.501C294.872 536.96 280.831 523.896 267.277 510.337C258.514 501.4 249.459 490.932 241.133 481.548C236.751 477.307 232.62 472.415 228.444 467.792C225.778 464.842 214.63 454.126 214.145 450.587C213.829 448.277 226.975 434.835 229.164 433.382C232.154 436.58 235.04 440.701 237.9 444.126C272.401 485.41 328.857 509.128 382.614 500.571C414.797 495.665 444.732 481.101 468.453 458.801C473.923 453.682 477.001 451.203 481.634 444.925C485.672 439.458 490.364 434.48 494.192 428.666C516.196 395.234 525.934 355.505 522.499 315.66C521.882 308.579 520.609 301.543 519.655 294.529C519.153 290.851 517.934 286.904 517.325 283.127C519.163 280.376 529.17 268.117 531.669 268.03C531.862 268.296 532.216 268.777 532.32 269.087C546.316 310.121 545.49 357.216 531.091 398.053C528.946 404.136 526.179 410.49 523.655 416.484C527.514 413.007 534.044 405.912 537.163 401.685C554.427 378.28 574.909 355.171 589.573 329.994C586.926 324.735 583.215 319.611 579.952 314.663C571.484 301.771 562.547 289.193 553.163 276.951C551.607 274.886 539.425 259.811 539.883 258.401C540.654 256.022 546.306 250.076 548.871 248.829C552.058 251.621 555.146 256.216 557.862 259.62C565.157 268.832 572.22 278.224 579.047 287.787C582.875 293.104 586.038 298.015 590.131 303.199C588.565 292.16 587.078 281.731 584.523 270.86C583.074 264.69 582.162 260.212 579.942 254.097C577.412 247.135 576.372 239.617 572.592 232.989C571.69 231.413 570.757 227.91 570.248 226.11C571.88 222.697 580.066 213.257 583.26 210.918ZM388.631 570.905C485.097 560.685 565.59 479.207 585.412 386.232C586.912 379.196 589.969 364.844 589.845 357.832C589.415 357.23 589.642 357.402 589.298 357.182C581.594 367.161 574.324 378.149 566.592 388.108C559.793 396.865 551.886 406.659 544.647 415.041C533.17 428.384 521.221 441.313 508.822 453.806C505.173 457.527 501.366 461.228 497.596 464.825C488.77 473.245 481.111 482.743 472.952 491.803C463.947 501.703 454.639 511.321 445.038 520.643C433.558 531.621 421.506 542.464 409.533 552.895C402.656 558.888 394.965 564.413 388.167 570.523L388.631 570.905ZM278.218 501.521C282.947 505.424 288.502 511.779 293.042 516.203C297.004 520.061 300.764 523.273 304.759 526.998C308.116 529.084 310.616 532.113 313.628 534.612C316.933 537.353 320.183 540.199 323.488 542.933C331.965 549.945 340.485 556.83 349.378 563.318C353.667 566.451 356.249 569.491 361.385 571.408C370.865 566.916 443.162 506.684 443.344 501.6C440.563 502.936 437.93 503.868 435.096 505.07C430.914 506.843 426.621 509.204 422.408 510.805C393.926 521.659 363.085 524.798 333 519.907C322.624 518.141 311.142 514.877 301.204 511.38C293.63 508.715 285.795 504.564 278.218 501.521Z" fill="#2DB7AF"/>
<path d="M350.214 67.3131C405 65.5771 451.007 78.8819 496.588 109.475C512.443 120.116 527.783 133.309 540.313 147.6C542.674 150.293 547.397 153.944 548.086 157.399C547.511 159.654 538.468 169.162 536.427 170.961C533.834 169.382 532.237 167.551 530.296 165.364C503.665 135.35 469.465 112.429 431.465 99.4054C416.294 94.2049 402.872 91.534 386.549 89.0634C392.387 94.0569 399.265 99.0897 405.127 104.158C417.048 114.459 429.503 125.315 440.711 136.382C452.308 147.961 463.568 159.87 474.481 172.094C479.789 178.111 484.956 184.408 490.126 190.438C491.81 192.401 504.825 203.767 504.054 205.335C502.206 209.094 492.071 220.506 488.705 222.839C485.211 219.313 483.008 216.128 479.799 212.611C474.691 207.042 469.193 201.841 463.352 197.046C430.112 169.352 387.148 156.156 344.094 160.419C334.541 161.319 325.5 163.473 316.368 166.316C285.832 175.582 258.676 193.582 238.248 218.097C207.129 255.711 195.319 303.153 199.796 351.209C200.031 354.411 200.452 357.509 200.899 360.676C201.336 363.767 203.253 369.874 201.137 372.497C197.132 377.461 192.28 382.049 187.905 386.766C187.074 382.969 185.871 381.106 184.835 377.681C183.741 374.063 183.109 369.202 182.283 365.45C180.161 355.818 179.985 347.268 179.515 337.574C178.223 310.95 183.169 287.816 191.535 262.559C192.85 258.562 194.363 254.633 196.067 250.786C197.429 247.73 199.021 244.743 200.058 241.579L200.219 241.077C197.167 243.325 192.077 249.704 189.398 252.788C172.418 272.123 156.681 292.514 142.28 313.84C139.062 318.682 134.273 325.502 132.106 330.766C135.92 338.719 145.631 352.355 150.922 359.691C155.956 366.796 161.044 373.86 166.188 380.882C169.948 385.987 175.061 391.413 177.737 396.841C176.192 399.657 171.888 405.743 168.764 406.483C166.017 405.964 135.335 362.135 131.534 356.751C133.075 374.855 136.71 392.717 142.366 409.984C144.051 415.01 145.953 419.513 148.002 424.387C148.363 425.42 149.266 428.263 148.585 429.217C146.421 432.243 143.414 435.09 140.864 437.751C140.099 438.27 135.836 443.493 134.875 441.978C131.927 437.324 129.391 431.324 127.415 426.064C93.733 336.424 110.447 230.315 172.297 156.942C174.58 154.234 176.435 150.996 178.777 148.342C181.891 144.811 185.859 142.129 188.974 138.587C193.548 133.296 198.91 129.396 204.201 124.997C237.731 96.6008 278.222 77.6526 321.506 70.1014C330.164 68.6793 341.386 67.9347 350.214 67.3131ZM132.344 302.758C136.546 297.257 139.79 291.062 143.939 285.61C160.737 263.537 177.06 242.721 196.797 223.14L214.641 205.19C219.452 200.388 223.135 195.152 228.974 191.257C230.381 190.318 233.31 185.851 234.894 184.651C236.474 182.996 237.807 180.848 239.341 179.3C246.638 171.969 253.215 163.872 260.591 156.614C262.627 154.61 265.363 150.391 267.343 148.806C274.617 142.985 280.311 136.357 286.627 129.583C288.053 128.053 290.28 127.007 291.869 125.659C295.866 121.778 299.881 117.868 304.176 114.307C311.351 108.359 318.388 102.295 325.677 96.4838C327.429 95.0862 333.478 91.1237 333.92 89.3777C333.186 89.1873 333.487 89.1464 333.017 89.2847C230.836 102.975 150.707 184.538 134.205 285.235C133.326 290.601 131.86 297.404 131.717 302.705L132.059 303.066L132.344 302.758ZM278.168 159.857L278.747 159.669C284.436 157.793 290.021 154.085 295.671 151.942C317.89 143.515 339.137 139.475 362.896 139.534C384.635 140.096 406.112 144.397 426.387 152.25C432.563 154.626 437.692 157.992 444.215 160.148C439.251 154.719 432.59 148.643 427.289 143.409C417.43 133.673 405.206 123.022 394.745 114.256C390.71 110.876 363.082 89.197 360.8 88.7777C356.011 91.2245 348.638 97.3568 344.338 100.739C327.047 114.145 310.446 128.417 294.598 143.5C289.428 148.352 282.337 154.382 278.168 159.857Z" fill="#2DB7AF"/>
<path d="M633.956 108.48L634.6 108.393L635.065 108.93C635.309 111.463 630.576 132.883 629.908 136.523C628.004 146.881 625.756 158.046 623.901 168.52C623.691 169.692 623.488 170.973 622.565 171.575C619.973 170.603 609.081 158.847 605.109 156.206C597.938 162.635 589.143 173.013 582.585 180.255L552.644 212.91L514.502 254.598C506.567 263.19 497.762 272.294 490.261 281.194C489.741 285.581 490.395 290.044 488.553 294.243C485.125 302.067 478.374 308.036 469.462 308.085C456.395 308.158 448.191 297.692 448.167 285.284C446.691 283.953 442.959 281.472 441.186 280.144C437.31 277.262 433.726 274.209 429.568 271.723C425.967 269.57 424.315 271.285 421.771 274.06C412.432 284.245 403.254 294.595 393.991 304.851L337.724 367.457C331.031 375.072 324.299 382.655 317.528 390.201C312.735 395.475 307.066 403.014 299.966 404.979C288.042 408.284 280.681 401.044 271.73 394.693C269.269 392.945 267.296 391.044 264.478 389.643C262.553 390.074 260.452 390.986 258.543 391.64C251.141 394.184 246.749 392.156 240.056 389.265C236.564 391.22 229.602 399.847 226.527 403.244L196.98 435.875L164.795 471.317C155.731 481.138 146.747 491.018 137.767 500.911C134.861 504.113 136.477 507.951 136.816 511.886C137.864 524.034 127.816 537.652 115.118 537.869C108.257 538.041 103.53 537.06 98.2459 532.482C97.5396 531.814 96.8415 531.136 96.1519 530.454C91.5436 525.793 88.9932 519.483 89.0689 512.929C89.0944 506.048 91.8283 498.564 96.7454 493.744C101.34 489.259 107.694 487.052 114.081 487.724C116.279 487.958 121.997 489.462 124.034 487.662C125.386 486.464 126.051 484.24 127.197 483.087C137.118 473.131 146.561 462.801 156.191 452.556C157.17 451.513 158.242 448.907 158.972 448.264C167.741 440.515 175.017 431.923 182.033 422.604C183.023 421.293 185.173 420.752 185.89 419.826C188.947 415.881 191.502 412.084 195.479 408.921C199.773 405.258 203.408 400.163 207.168 395.988C214.761 387.444 222.647 379.168 230.812 371.175C231.808 353.12 249.633 340.368 265.579 353.275C271.55 358.104 273.18 364.538 273.695 372.001C279.009 376.032 286.913 382.879 293.097 385.65C294.703 386.387 297.268 384.487 298.335 383.33C308.029 372.841 317.74 362.077 327.228 351.405L392.549 278.781C400.015 270.555 409.079 258.688 418.194 252.745C432.257 243.578 446.171 263.671 456.57 266.553C462.253 264.618 465.689 261.78 471.954 263.575C473.644 263.876 476.415 264.79 478.061 264.711C479.603 264.636 482.467 260.616 483.555 259.5C492.065 250.766 500.189 241.668 508.433 232.699L539.07 199.112C544.743 192.897 550.551 187.486 555.435 180.519C556.713 178.694 560.372 176.622 561.842 174.739C569.924 164.375 579.491 155.506 588.386 145.88C589.773 144.38 591.074 143.264 592.403 141.628C588.589 135.756 582.358 131.391 578.021 125.877C577.511 125.226 577.711 124.736 577.873 124.089C580.778 121.879 595.811 118.831 599.828 117.716C606.734 115.797 613.946 113.306 620.899 111.451C624.834 110.401 629.281 109.844 633.44 108.632L633.956 108.48Z" fill="#39DFB0"/>
<path d="M472.546 323.443L477.18 323.019C477.493 336.405 477.111 356.944 477.861 370.524C482.381 375.832 487.586 379.024 489.262 386.208C493.665 405.093 476.305 422.542 457.166 410.081C452.784 411.244 434.043 424.294 429.004 427.375C427.107 428.532 422.522 431.245 420.549 432.487L397.995 446.608C393.055 449.637 387.299 453.716 382.335 456.178C380.814 462.825 382.37 465.252 378.27 472.267C368.862 488.364 342.223 482.477 340.532 464.364C339.461 452.89 337.947 455.892 328.795 449.496C319.322 442.838 307.407 436.432 297.181 429.468C304.633 427.916 308.952 425.547 315.641 422.308C317.879 421.224 323.894 426.029 326.199 427.468C333.812 432.226 340.457 436.928 348.565 440.942C358.982 437.241 362.211 436.191 372.672 441.338C378.084 439.172 382.821 435.3 387.767 432.315C392.008 429.757 396.177 427.121 400.384 424.518L427.334 407.702C433.84 403.657 440.233 399.54 446.632 395.32C449.393 393.495 448.859 389.141 449.279 386.287C450.353 378.972 454.505 375.554 459.992 371.502C460.006 368.93 460.13 366.352 460.247 363.781C460.828 350.638 459.458 336.657 460.35 323.592C464.674 323.478 467.961 323.755 472.546 323.443Z" fill="#2DB7AF"/>
<path d="M358.452 178.783C363.316 178.248 368.197 179.599 372.098 182.555C379.798 188.305 380.445 194.501 381.712 202.976C385.103 206.431 389.509 207.83 393.106 210.291C402.356 216.621 412.879 222.69 421.864 229.278C410.838 232.822 412.718 231.139 402.845 237.943C401.358 236.802 399.76 235.832 398.16 234.858C389.905 229.837 381.771 223.883 373.182 219.499C363.908 225.803 357.609 224.707 348.373 219.363C346.404 220.411 344.658 221.567 342.77 222.723C325.142 233.515 307.271 243.892 289.914 255.134C284.378 258.72 279.031 261.506 273.959 265.822C273.023 274.789 272.506 279.657 265.957 286.071C263.917 287.289 262.972 287.903 261.105 289.378C260.409 293.352 260.586 300.993 260.59 305.34L260.632 331.682C258.18 331.552 255.676 331.383 253.224 331.368C250.359 331.351 247.174 331.852 244.37 331.435C242.923 329.377 243.49 294.733 243.172 289.095C235.903 283.744 230.967 278.224 231.091 268.651C231.114 262.18 233.79 256.003 238.492 251.558C243.025 247.289 250.76 244.971 256.766 246.894C258.345 247.4 263.788 250.302 264.838 249.887C268.354 248.499 273.633 244.323 277.109 242.482C281.405 240.202 285.363 236.854 289.523 234.454C303.46 226.415 316.914 217.628 330.689 209.331C332.681 208.131 339.462 204.842 339.658 202.599C340.719 190.435 345.061 180.678 358.452 178.783Z" fill="#2DBEB0"/>
</svg>
