<svg width="1000" height="292" viewBox="0 0 1000 292" fill="none" xmlns="http://www.w3.org/2000/svg">
<path d="M293.498 87.5012C295.049 88.9178 297.5 95.4473 298.331 97.5902C305.475 116.015 308.267 134.765 306.81 154.484C304.114 187.101 288.618 217.321 263.712 238.532C238.539 260.277 205.775 271.143 172.607 268.746C138.541 266.169 106.936 250.006 84.8901 223.887L91.6631 217.303C112.546 242.395 138.134 253.9 169.602 258.877C152.773 246.813 137.002 232.289 122.735 217.312C118.119 212.488 111.475 206.222 107.474 201.174C109.686 198.573 112.898 195.36 115.297 192.819C121.415 200.933 128.989 207.835 137.633 213.172C156.164 224.824 178.572 228.602 199.895 223.667C221.193 218.783 239.684 205.643 251.311 187.13C264.026 166.453 265.945 145.032 260.39 121.781L267.742 114.232C275.815 141.918 274.621 158.806 263.379 185.385C272.833 176.927 289.81 154.636 297.117 143.979C289.156 132.319 280.596 121.079 271.475 110.305L276.102 105.259C283.487 113.786 290.485 122.64 297.076 131.796C295.436 118.118 292.823 107.202 286.778 94.6416L293.498 87.5012ZM195.915 258.538C229.472 253.301 255.253 238.897 276.013 211.321C286.592 197.268 295.357 175.947 296.81 158.275C296.606 157.833 296.54 157.541 296.201 157.23C282.412 175.131 269.185 190.763 252.427 206.015C242.435 215.108 233.702 225.501 223.506 234.732C217.444 240.196 211.237 245.497 204.892 250.63C202.253 252.759 197.831 255.764 195.669 257.863C195.765 258.342 195.661 258.331 195.915 258.538ZM140.181 225.362C144.496 229.804 149.07 233.988 153.877 237.892C163.169 245.436 171.879 252.241 181.816 258.959C187.509 255.119 221.878 229.952 222.864 225.497C195.997 236.73 173.83 239.284 145.996 227.833C144.05 227.028 142.111 226.204 140.181 225.362Z" fill="#2DB7B0"/>
<path d="M177.093 19.4146C215.28 17.667 250.712 34.0369 276.187 62.052C274.064 64.2771 271.968 66.5286 269.901 68.806C246.194 45.0901 227.803 34.5642 194.235 29.6173C206.803 38.7867 218.661 48.8932 229.708 59.8506C238.148 68.2247 245.36 76.5433 254.103 84.8557L246.011 93.2607C243.638 90.5526 241.419 88.154 238.799 85.6714C222.674 70.6519 201.302 62.5662 179.281 63.1543C157.225 63.8304 136.344 73.262 121.246 89.3681C105.615 106.026 99.2399 126.895 99.9499 149.418C100.255 154.17 101.029 158.683 101.928 163.35C99.8038 165.729 96.8087 168.628 94.5326 170.963C86.6287 145.465 90.3637 125.164 101.071 101.37C90.3306 110.946 74.0179 132.446 66.1608 144.299C73.1179 155.063 81.6756 165.743 89.7002 175.792L85.0429 180.717C78.7694 173.619 71.8574 164.009 65.9379 156.428C67.735 171.713 69.9455 176.991 75.0402 190.964L68.1175 197.798C61.0281 184.155 56.6631 166.271 55.8159 150.995C54.0344 118.056 65.407 85.7586 87.4298 61.2145C110.784 35.1429 142.421 21.2803 177.093 19.4146ZM165.414 30.0953C134.118 34.8977 106.225 50.7758 87.3574 76.4629C77.3476 90.0786 70.5326 105.776 67.4187 122.39C67.017 124.595 66.1894 128.594 66.3029 130.609L66.7895 130.878L67.7323 129.893C79.0188 113.955 93.2565 98.4818 107.619 85.2662C120.269 73.6269 131.46 60.9618 144.236 49.4875C149.756 44.549 155.458 39.8182 161.331 35.3051C162.664 34.2834 167.374 31.2335 167.601 30.0043C166.726 29.9526 166.291 29.8898 165.414 30.0953ZM139.601 63.5809C154.886 57.054 165.961 53.5375 183.021 53.7307C199.338 54.4573 208.98 57.2253 223.872 63.7597C217.593 57.4042 188.218 31.5745 181.497 29.4586C172.128 35.3785 146.915 55.268 139.601 63.5809Z" fill="#2DB7B0"/>
<path d="M318.809 38.985L319.221 39.0354C319.579 39.9651 314.008 65.7416 313.459 69.2514C310.542 66.4946 307.555 63.8125 304.5 61.2087C285.193 80.5652 265.787 101.025 246.699 120.676C246.258 137.286 227.281 138.119 225.434 122.559C221.865 120.046 218.288 117.469 214.579 115.174C209.951 119.309 203.446 126.537 198.912 131.291L170.034 161.704C165.345 166.66 160.818 171.55 155.917 176.296C147.703 184.251 140.364 177.198 133.067 172.036C132.185 172.468 131.277 172.844 130.349 173.163C126.293 174.546 124.336 173.628 120.662 171.831C103.513 188.598 84.9558 208.795 68.1104 226.313C69.0358 230.284 69.24 232.752 67.231 236.556C65.8065 239.296 63.3418 241.349 60.3905 242.254C56.5514 243.405 53.534 242.46 50.1783 240.632C48.7511 239.486 47.7833 238.534 46.7793 236.978C45.0916 234.402 44.5057 231.256 45.1524 228.244C45.853 225.136 47.7766 222.442 50.488 220.771C54.3972 218.357 57.3821 218.763 61.5809 219.779L116.345 163.312C116.959 157.922 120.222 153.379 125.899 152.747C128.622 152.446 131.35 153.255 133.469 154.991C136.649 157.59 137.341 160.346 137.746 164.179C139.502 165.336 146.976 171.359 148.821 170.102C152.97 167.277 157.118 162.351 160.67 158.629L190.819 126.865C196.161 121.215 201.388 115.586 206.924 110.123C214.744 102.405 222.451 109.411 229.618 114.204C234.492 111.898 235.654 111.789 240.798 113.402L298.399 54.5119C296.222 52.0824 292.547 48.7314 290.117 46.3833C299.278 43.7604 309.52 41.296 318.809 38.985Z" fill="#39DEB0"/>
<path d="M750.514 120.437C777.686 118.712 788.74 134.829 787.909 160.221L739.518 160.198C739.71 161.816 739.888 163.579 740.317 165.141C744.227 179.374 762.462 181.805 769.933 169.047C772.869 169.457 777.002 169.662 780.049 169.89L787.703 170.245C783.633 182.437 775.706 188.694 762.61 190.787C727.073 196.467 709.263 160.383 728.021 132.369C732.864 125.131 741.845 121.57 750.514 120.437ZM739.629 148.659L757.435 148.668L769.736 148.667C768.235 138.7 763.445 133.301 752.753 134.269C744.392 136.034 741.282 140.406 739.629 148.659Z" fill="#D8E1E9"/>
<path d="M838.356 120.433C839.567 120.357 840.782 120.313 841.997 120.304C848.155 120.307 854.83 122.317 859.214 126.804C867.784 135.575 866.314 149.593 866.282 160.973L866.224 189.704L847.158 189.779C847.212 176.984 847.319 164.193 847.234 151.377C847.163 140.341 840.407 133.251 829.272 136.746C826.796 137.524 825.116 139.205 823.418 141.063C819.102 147.95 820.183 157.642 820.214 165.621L820.237 189.697L801.318 189.743L801.238 121.381C806.904 121.189 813.686 121.336 819.433 121.328C819.504 125.721 819.446 130.114 819.263 134.504C824.245 125.574 828.137 121.99 838.356 120.433Z" fill="#D8E1E9"/>
<path d="M554.576 120.481C554.79 120.477 555 120.477 555.214 120.481C579.147 120.88 585.769 137.964 585.491 158.923C568.802 159.283 551.153 159.009 534.406 159.016C535.058 167.005 537.869 175.872 545.621 179.37C556.72 184.379 568.195 182.195 573.811 171.114C576.886 171.408 581.774 172.99 584.692 174.017C575.934 193.654 550.094 196.548 534.227 183.498C527.292 177.794 523.977 168.114 523.499 159.301C522.35 138.179 532.306 121.814 554.576 120.481ZM534.584 150.16L557.752 150.173L574.781 150.187C573.391 137.264 566.854 128.992 553.079 129.801C541.568 131.625 536.01 138.831 534.584 150.16Z" fill="#D8E1E9"/>
<path d="M906.416 120.453C922.283 119.688 936.363 123.259 940.357 140.418C934.915 140.96 928.543 141.198 923.025 141.541C919.16 133.117 908.021 131.067 901.037 137.387C900.353 138.006 899.683 139.877 899.915 140.814C901.269 146.287 908.217 147.312 912.873 148.197C920.693 149.729 929.687 150.909 936.153 155.938C943.418 161.59 943.369 174.434 937.632 181.158C931.291 188.584 922.654 190.414 913.427 191.265C896.653 191.735 883.789 187.184 878.829 170.019C885.058 169.725 891.412 169.286 897.645 168.913C898.36 171.208 898.99 172.526 900.88 174.272C906.063 179.065 923.074 179.614 922.1 169.436C921.948 167.857 920.322 165.954 918.865 165.375C908.601 161.295 896.349 162.099 887.154 155.22C879.535 149.519 879.263 136.87 885.067 129.812C890.42 123.303 898.427 121.302 906.416 120.453Z" fill="#D8E1E9"/>
<path d="M649.915 98.3445L669.45 98.3195C669.12 123.215 669.433 148.906 669.437 173.862L710.862 173.813L710.755 189.64L705.143 189.711L649.951 189.75L649.915 98.3445Z" fill="#D8E1E9"/>
<path d="M436.452 120.458C436.756 120.441 437.061 120.432 437.366 120.431C463.798 120.334 462.73 140.712 462.735 160.255L462.744 189.68L451.979 189.789L452.038 161.706C452.046 156.427 452.189 151.263 451.796 145.986C450.706 131.423 437.706 126.03 425.319 132.618C415.558 139.58 417.403 151.209 417.441 161.89C417.521 171.153 417.518 180.416 417.433 189.678L406.464 189.706L406.38 121.373L417.008 121.352L416.888 133.352C421.45 124.963 427.101 121.511 436.452 120.458Z" fill="#D8E1E9"/>
<path d="M505.411 93.5961C510.652 93.3376 512.632 93.6752 517.547 95.0601L515.344 104.412C499.513 99.4115 498.248 108.894 498.213 121.419L514.567 121.442L514.553 130.424L498.231 130.484C498.463 147.22 498.253 164.439 498.257 181.214L498.217 189.696L487.484 189.753C486.917 171.085 487.453 149.429 487.48 130.497L475.719 130.473L475.693 121.447L487.462 121.425C487.243 106.515 488.065 96.1293 505.411 93.5961Z" fill="#D8E1E9"/>
<path d="M231.697 140.871C234.74 141.375 237.108 141.095 240.128 140.729L240.236 163.569C243.082 165.46 245.01 167.251 245.996 170.635C246.805 173.375 246.485 176.325 245.105 178.826C241.66 185.009 235.314 184.918 229.758 181.775L192.055 204.192C191.784 208.168 191.504 210.539 188.425 213.463C186.534 215.286 183.988 216.267 181.365 216.184C170.985 215.761 171.652 204.96 170.483 203.678C163.552 199.455 156.562 195.329 149.516 191.301C153.628 190.435 155.87 189.399 159.474 187.451C164.726 190.729 170.056 193.88 175.46 196.899C176.331 196.503 177.222 196.153 178.131 195.854C182.288 194.476 184.036 195.277 187.778 197.159C199.287 189.793 213.797 181.712 225.728 174.646C225.778 173.606 225.88 172.568 226.034 171.538C226.67 167.412 228.453 166.025 231.657 163.683C231.887 156.244 231.551 148.422 231.697 140.871Z" fill="#2DB7B0" fill-opacity="0.988235"/>
<path d="M178.645 72.5036C187.119 71.7041 191.358 75.5949 191.904 83.9945C198.529 87.5459 205.839 92.1544 212.188 96.1914C207.811 97.215 206.432 97.7489 202.732 100.284C197.715 97.1774 193.111 94.3826 187.934 91.5114C182.753 94.3026 180.447 94.2847 175.359 91.3508C162.846 98.8436 150.337 105.691 137.713 113.376C137.174 117.729 137.588 118.306 134.967 122.103C133.862 123.156 132.412 123.912 131.084 124.686L131.061 144.764C127.462 144.457 126.288 144.469 122.635 144.823L122.563 124.643C117.441 121.201 114.681 116.072 117.601 110.081C118.788 107.681 120.879 105.852 123.415 104.995C127.285 103.706 129.777 104.643 133.229 106.356C145.261 98.8601 158.689 91.3495 171.03 84.2234C171.438 78.1004 172.958 75.0283 178.645 72.5036Z" fill="#2CBDB0" fill-opacity="0.988235"/>
<path d="M373.916 98.3539C377.327 98.2117 381.693 98.3392 385.178 98.3392C385.334 128.768 385.338 159.199 385.189 189.628C381.797 189.809 377.432 189.724 373.963 189.757L373.916 98.3539Z" fill="#D8E1E9"/>
<path d="M629.602 120.377C632.739 120.166 635.094 120.326 638.208 120.505L637.976 131.197C620.425 127.756 611.93 137.453 612.766 154.727C612.895 157.436 612.797 160.996 612.802 163.756L612.793 189.663C610.442 189.742 603.82 190.167 602.064 189.397L601.805 188.369L601.787 121.395C605.268 121.332 608.932 121.394 612.431 121.398C612.444 125.348 612.395 129.297 612.292 133.245C612.797 132.437 613.311 131.634 613.834 130.838C618.016 124.503 622.324 121.858 629.602 120.377Z" fill="#D8E1E9"/>
<path d="M174.456 128.718L174.92 129.153C173.977 130.765 161.852 143.254 159.373 145.894L159.038 145.564C159.15 143.715 172.363 130.932 174.456 128.718Z" fill="#2DB7B0" fill-opacity="0.0196078"/>
</svg>
